<mxfile host="app.diagrams.net" modified="2022-09-02T16:13:45.678Z" agent="5.0 (Windows NT 10.0; Win64; x64) AppleWebKit/537.36 (KHTML, like Gecko) Chrome/104.0.0.0 Safari/537.36" etag="w6MYAci4pFFyNe8gfTqu" version="20.2.7" type="github">
  <diagram id="2oUdNdcL_b_8X2z0rsAY" name="PÃ¡gina-1">
    <mxGraphModel dx="1422" dy="794" grid="1" gridSize="10" guides="1" tooltips="1" connect="1" arrows="1" fold="1" page="1" pageScale="1" pageWidth="850" pageHeight="1100" math="0" shadow="0">
      <root>
        <mxCell id="0" />
        <mxCell id="1" parent="0" />
        <mxCell id="LV8V1AMUxR7woBJsiXBK-3" value="" style="edgeStyle=orthogonalEdgeStyle;rounded=0;orthogonalLoop=1;jettySize=auto;html=1;" edge="1" parent="1" source="LV8V1AMUxR7woBJsiXBK-1" target="LV8V1AMUxR7woBJsiXBK-2">
          <mxGeometry relative="1" as="geometry" />
        </mxCell>
        <mxCell id="LV8V1AMUxR7woBJsiXBK-1" value="inicio" style="ellipse;whiteSpace=wrap;html=1;" vertex="1" parent="1">
          <mxGeometry x="365" y="20" width="85" height="50" as="geometry" />
        </mxCell>
        <mxCell id="LV8V1AMUxR7woBJsiXBK-5" value="" style="edgeStyle=orthogonalEdgeStyle;rounded=0;orthogonalLoop=1;jettySize=auto;html=1;" edge="1" parent="1" source="LV8V1AMUxR7woBJsiXBK-2" target="LV8V1AMUxR7woBJsiXBK-4">
          <mxGeometry relative="1" as="geometry" />
        </mxCell>
        <mxCell id="LV8V1AMUxR7woBJsiXBK-2" value="num1(froat),num2(froat)&lt;br&gt;res(float),operacion(int)" style="whiteSpace=wrap;html=1;" vertex="1" parent="1">
          <mxGeometry x="331.5" y="100" width="152.5" height="70" as="geometry" />
        </mxCell>
        <mxCell id="LV8V1AMUxR7woBJsiXBK-7" value="" style="edgeStyle=orthogonalEdgeStyle;rounded=0;orthogonalLoop=1;jettySize=auto;html=1;" edge="1" parent="1" source="LV8V1AMUxR7woBJsiXBK-4" target="LV8V1AMUxR7woBJsiXBK-6">
          <mxGeometry relative="1" as="geometry" />
        </mxCell>
        <mxCell id="LV8V1AMUxR7woBJsiXBK-4" value="num1" style="shape=parallelogram;perimeter=parallelogramPerimeter;whiteSpace=wrap;html=1;fixedSize=1;" vertex="1" parent="1">
          <mxGeometry x="347.5" y="190" width="120" height="60" as="geometry" />
        </mxCell>
        <mxCell id="LV8V1AMUxR7woBJsiXBK-9" value="" style="edgeStyle=orthogonalEdgeStyle;rounded=0;orthogonalLoop=1;jettySize=auto;html=1;" edge="1" parent="1" source="LV8V1AMUxR7woBJsiXBK-6" target="LV8V1AMUxR7woBJsiXBK-8">
          <mxGeometry relative="1" as="geometry" />
        </mxCell>
        <mxCell id="LV8V1AMUxR7woBJsiXBK-6" value="num2" style="shape=parallelogram;perimeter=parallelogramPerimeter;whiteSpace=wrap;html=1;fixedSize=1;" vertex="1" parent="1">
          <mxGeometry x="347.5" y="280" width="120" height="60" as="geometry" />
        </mxCell>
        <mxCell id="LV8V1AMUxR7woBJsiXBK-11" value="" style="edgeStyle=orthogonalEdgeStyle;rounded=0;orthogonalLoop=1;jettySize=auto;html=1;" edge="1" parent="1" source="LV8V1AMUxR7woBJsiXBK-8" target="LV8V1AMUxR7woBJsiXBK-10">
          <mxGeometry relative="1" as="geometry" />
        </mxCell>
        <mxCell id="LV8V1AMUxR7woBJsiXBK-8" value="res" style="shape=parallelogram;perimeter=parallelogramPerimeter;whiteSpace=wrap;html=1;fixedSize=1;" vertex="1" parent="1">
          <mxGeometry x="347.5" y="380" width="120" height="60" as="geometry" />
        </mxCell>
        <mxCell id="LV8V1AMUxR7woBJsiXBK-13" value="" style="edgeStyle=orthogonalEdgeStyle;rounded=0;orthogonalLoop=1;jettySize=auto;html=1;" edge="1" parent="1" source="LV8V1AMUxR7woBJsiXBK-10" target="LV8V1AMUxR7woBJsiXBK-12">
          <mxGeometry relative="1" as="geometry" />
        </mxCell>
        <mxCell id="LV8V1AMUxR7woBJsiXBK-10" value="operacion" style="shape=parallelogram;perimeter=parallelogramPerimeter;whiteSpace=wrap;html=1;fixedSize=1;" vertex="1" parent="1">
          <mxGeometry x="347.5" y="470" width="120" height="60" as="geometry" />
        </mxCell>
        <mxCell id="LV8V1AMUxR7woBJsiXBK-15" value="" style="edgeStyle=orthogonalEdgeStyle;rounded=0;orthogonalLoop=1;jettySize=auto;html=1;" edge="1" parent="1" source="LV8V1AMUxR7woBJsiXBK-12" target="LV8V1AMUxR7woBJsiXBK-14">
          <mxGeometry relative="1" as="geometry" />
        </mxCell>
        <mxCell id="LV8V1AMUxR7woBJsiXBK-12" value="operacion ==5" style="rhombus;whiteSpace=wrap;html=1;" vertex="1" parent="1">
          <mxGeometry x="321.25" y="590" width="172.5" height="100" as="geometry" />
        </mxCell>
        <mxCell id="LV8V1AMUxR7woBJsiXBK-14" value="operacion" style="shape=hexagon;perimeter=hexagonPerimeter2;whiteSpace=wrap;html=1;fixedSize=1;" vertex="1" parent="1">
          <mxGeometry x="610" y="730" width="120" height="80" as="geometry" />
        </mxCell>
        <mxCell id="LV8V1AMUxR7woBJsiXBK-18" value="" style="edgeStyle=orthogonalEdgeStyle;rounded=0;orthogonalLoop=1;jettySize=auto;html=1;" edge="1" parent="1" source="LV8V1AMUxR7woBJsiXBK-16">
          <mxGeometry relative="1" as="geometry">
            <mxPoint x="391" y="1000" as="targetPoint" />
          </mxGeometry>
        </mxCell>
        <mxCell id="LV8V1AMUxR7woBJsiXBK-16" value="&quot;Ingresa el primer numero a sumar&quot;" style="shape=document;whiteSpace=wrap;html=1;boundedLbl=1;" vertex="1" parent="1">
          <mxGeometry x="331" y="880" width="120" height="80" as="geometry" />
        </mxCell>
        <mxCell id="LV8V1AMUxR7woBJsiXBK-22" style="edgeStyle=orthogonalEdgeStyle;rounded=0;orthogonalLoop=1;jettySize=auto;html=1;entryX=0.5;entryY=0;entryDx=0;entryDy=0;" edge="1" parent="1" target="LV8V1AMUxR7woBJsiXBK-19">
          <mxGeometry relative="1" as="geometry">
            <mxPoint x="391" y="1060" as="sourcePoint" />
          </mxGeometry>
        </mxCell>
        <mxCell id="LV8V1AMUxR7woBJsiXBK-23" style="edgeStyle=orthogonalEdgeStyle;rounded=0;orthogonalLoop=1;jettySize=auto;html=1;entryX=0.5;entryY=0;entryDx=0;entryDy=0;" edge="1" parent="1" source="LV8V1AMUxR7woBJsiXBK-19">
          <mxGeometry relative="1" as="geometry">
            <mxPoint x="391" y="1240" as="targetPoint" />
          </mxGeometry>
        </mxCell>
        <mxCell id="LV8V1AMUxR7woBJsiXBK-19" value="&quot;Ingresa el segundo numero a sumar&quot;" style="shape=document;whiteSpace=wrap;html=1;boundedLbl=1;" vertex="1" parent="1">
          <mxGeometry x="331" y="1120" width="120" height="80" as="geometry" />
        </mxCell>
        <mxCell id="LV8V1AMUxR7woBJsiXBK-26" value="" style="edgeStyle=orthogonalEdgeStyle;rounded=0;orthogonalLoop=1;jettySize=auto;html=1;" edge="1" parent="1" target="LV8V1AMUxR7woBJsiXBK-25">
          <mxGeometry relative="1" as="geometry">
            <mxPoint x="391" y="1300" as="sourcePoint" />
          </mxGeometry>
        </mxCell>
        <mxCell id="LV8V1AMUxR7woBJsiXBK-25" value="Imprime el resultado de la suma" style="shape=document;whiteSpace=wrap;html=1;boundedLbl=1;" vertex="1" parent="1">
          <mxGeometry x="331" y="1340" width="120" height="80" as="geometry" />
        </mxCell>
        <mxCell id="LV8V1AMUxR7woBJsiXBK-42" style="edgeStyle=orthogonalEdgeStyle;rounded=0;orthogonalLoop=1;jettySize=auto;html=1;entryX=0.5;entryY=0;entryDx=0;entryDy=0;" edge="1" parent="1" source="LV8V1AMUxR7woBJsiXBK-27">
          <mxGeometry relative="1" as="geometry">
            <mxPoint x="590" y="1000" as="targetPoint" />
          </mxGeometry>
        </mxCell>
        <mxCell id="LV8V1AMUxR7woBJsiXBK-27" value="&quot;Ingresa el primer numero a resta&quot;" style="shape=document;whiteSpace=wrap;html=1;boundedLbl=1;" vertex="1" parent="1">
          <mxGeometry x="530" y="880" width="120" height="80" as="geometry" />
        </mxCell>
        <mxCell id="LV8V1AMUxR7woBJsiXBK-43" style="edgeStyle=orthogonalEdgeStyle;rounded=0;orthogonalLoop=1;jettySize=auto;html=1;entryX=0.5;entryY=0;entryDx=0;entryDy=0;" edge="1" parent="1" target="LV8V1AMUxR7woBJsiXBK-29">
          <mxGeometry relative="1" as="geometry">
            <mxPoint x="590" y="1060" as="sourcePoint" />
          </mxGeometry>
        </mxCell>
        <mxCell id="LV8V1AMUxR7woBJsiXBK-44" style="edgeStyle=orthogonalEdgeStyle;rounded=0;orthogonalLoop=1;jettySize=auto;html=1;entryX=0.5;entryY=0;entryDx=0;entryDy=0;" edge="1" parent="1" source="LV8V1AMUxR7woBJsiXBK-29">
          <mxGeometry relative="1" as="geometry">
            <mxPoint x="590" y="1240" as="targetPoint" />
          </mxGeometry>
        </mxCell>
        <mxCell id="LV8V1AMUxR7woBJsiXBK-29" value="&quot;Ingresa el segundo numero &quot;" style="shape=document;whiteSpace=wrap;html=1;boundedLbl=1;" vertex="1" parent="1">
          <mxGeometry x="530" y="1120" width="120" height="80" as="geometry" />
        </mxCell>
        <mxCell id="LV8V1AMUxR7woBJsiXBK-45" style="edgeStyle=orthogonalEdgeStyle;rounded=0;orthogonalLoop=1;jettySize=auto;html=1;entryX=0.5;entryY=0;entryDx=0;entryDy=0;" edge="1" parent="1" target="LV8V1AMUxR7woBJsiXBK-31">
          <mxGeometry relative="1" as="geometry">
            <mxPoint x="590" y="1300" as="sourcePoint" />
          </mxGeometry>
        </mxCell>
        <mxCell id="LV8V1AMUxR7woBJsiXBK-31" value="Imprime el resultado de la resta" style="shape=document;whiteSpace=wrap;html=1;boundedLbl=1;" vertex="1" parent="1">
          <mxGeometry x="530" y="1340" width="120" height="80" as="geometry" />
        </mxCell>
        <mxCell id="LV8V1AMUxR7woBJsiXBK-46" style="edgeStyle=orthogonalEdgeStyle;rounded=0;orthogonalLoop=1;jettySize=auto;html=1;entryX=0.5;entryY=0;entryDx=0;entryDy=0;" edge="1" parent="1" source="LV8V1AMUxR7woBJsiXBK-32">
          <mxGeometry relative="1" as="geometry">
            <mxPoint x="770" y="1000" as="targetPoint" />
          </mxGeometry>
        </mxCell>
        <mxCell id="LV8V1AMUxR7woBJsiXBK-32" value="&quot;Ingresa el primer numero a multiplicacion&quot;" style="shape=document;whiteSpace=wrap;html=1;boundedLbl=1;" vertex="1" parent="1">
          <mxGeometry x="710" y="880" width="120" height="80" as="geometry" />
        </mxCell>
        <mxCell id="LV8V1AMUxR7woBJsiXBK-47" style="edgeStyle=orthogonalEdgeStyle;rounded=0;orthogonalLoop=1;jettySize=auto;html=1;entryX=0.5;entryY=0;entryDx=0;entryDy=0;" edge="1" parent="1" target="LV8V1AMUxR7woBJsiXBK-34">
          <mxGeometry relative="1" as="geometry">
            <mxPoint x="770" y="1060" as="sourcePoint" />
          </mxGeometry>
        </mxCell>
        <mxCell id="LV8V1AMUxR7woBJsiXBK-48" style="edgeStyle=orthogonalEdgeStyle;rounded=0;orthogonalLoop=1;jettySize=auto;html=1;entryX=0.5;entryY=0;entryDx=0;entryDy=0;" edge="1" parent="1" source="LV8V1AMUxR7woBJsiXBK-34">
          <mxGeometry relative="1" as="geometry">
            <mxPoint x="770" y="1240" as="targetPoint" />
          </mxGeometry>
        </mxCell>
        <mxCell id="LV8V1AMUxR7woBJsiXBK-34" value="&quot;Ingresa el segundo numero &quot;" style="shape=document;whiteSpace=wrap;html=1;boundedLbl=1;" vertex="1" parent="1">
          <mxGeometry x="710" y="1120" width="120" height="80" as="geometry" />
        </mxCell>
        <mxCell id="LV8V1AMUxR7woBJsiXBK-49" style="edgeStyle=orthogonalEdgeStyle;rounded=0;orthogonalLoop=1;jettySize=auto;html=1;entryX=0.5;entryY=0;entryDx=0;entryDy=0;" edge="1" parent="1" target="LV8V1AMUxR7woBJsiXBK-36">
          <mxGeometry relative="1" as="geometry">
            <mxPoint x="770" y="1300" as="sourcePoint" />
          </mxGeometry>
        </mxCell>
        <mxCell id="LV8V1AMUxR7woBJsiXBK-36" value="Imprime el resultado de la multiplicacion" style="shape=document;whiteSpace=wrap;html=1;boundedLbl=1;" vertex="1" parent="1">
          <mxGeometry x="710" y="1340" width="120" height="80" as="geometry" />
        </mxCell>
        <mxCell id="LV8V1AMUxR7woBJsiXBK-50" style="edgeStyle=orthogonalEdgeStyle;rounded=0;orthogonalLoop=1;jettySize=auto;html=1;entryX=0.5;entryY=0;entryDx=0;entryDy=0;" edge="1" parent="1" source="LV8V1AMUxR7woBJsiXBK-37">
          <mxGeometry relative="1" as="geometry">
            <mxPoint x="940" y="1000" as="targetPoint" />
          </mxGeometry>
        </mxCell>
        <mxCell id="LV8V1AMUxR7woBJsiXBK-37" value="&quot;Ingresa el primer numero a division&quot;" style="shape=document;whiteSpace=wrap;html=1;boundedLbl=1;" vertex="1" parent="1">
          <mxGeometry x="880" y="880" width="120" height="80" as="geometry" />
        </mxCell>
        <mxCell id="LV8V1AMUxR7woBJsiXBK-51" style="edgeStyle=orthogonalEdgeStyle;rounded=0;orthogonalLoop=1;jettySize=auto;html=1;entryX=0.5;entryY=0;entryDx=0;entryDy=0;" edge="1" parent="1" target="LV8V1AMUxR7woBJsiXBK-39">
          <mxGeometry relative="1" as="geometry">
            <mxPoint x="940" y="1060" as="sourcePoint" />
          </mxGeometry>
        </mxCell>
        <mxCell id="LV8V1AMUxR7woBJsiXBK-52" style="edgeStyle=orthogonalEdgeStyle;rounded=0;orthogonalLoop=1;jettySize=auto;html=1;entryX=0.5;entryY=0;entryDx=0;entryDy=0;" edge="1" parent="1" source="LV8V1AMUxR7woBJsiXBK-39">
          <mxGeometry relative="1" as="geometry">
            <mxPoint x="940" y="1240" as="targetPoint" />
          </mxGeometry>
        </mxCell>
        <mxCell id="LV8V1AMUxR7woBJsiXBK-39" value="&quot;Ingresa el segundo numero &quot;" style="shape=document;whiteSpace=wrap;html=1;boundedLbl=1;" vertex="1" parent="1">
          <mxGeometry x="880" y="1120" width="120" height="80" as="geometry" />
        </mxCell>
        <mxCell id="LV8V1AMUxR7woBJsiXBK-53" style="edgeStyle=orthogonalEdgeStyle;rounded=0;orthogonalLoop=1;jettySize=auto;html=1;entryX=0.5;entryY=0;entryDx=0;entryDy=0;" edge="1" parent="1" target="LV8V1AMUxR7woBJsiXBK-41">
          <mxGeometry relative="1" as="geometry">
            <mxPoint x="940" y="1300" as="sourcePoint" />
          </mxGeometry>
        </mxCell>
        <mxCell id="LV8V1AMUxR7woBJsiXBK-41" value="Imprime el resultado de la division" style="shape=document;whiteSpace=wrap;html=1;boundedLbl=1;" vertex="1" parent="1">
          <mxGeometry x="880" y="1340" width="120" height="80" as="geometry" />
        </mxCell>
        <mxCell id="LV8V1AMUxR7woBJsiXBK-54" value="num1" style="shape=parallelogram;perimeter=parallelogramPerimeter;whiteSpace=wrap;html=1;fixedSize=1;" vertex="1" parent="1">
          <mxGeometry x="321.25" y="1000" width="120" height="60" as="geometry" />
        </mxCell>
        <mxCell id="LV8V1AMUxR7woBJsiXBK-55" value="num2" style="shape=parallelogram;perimeter=parallelogramPerimeter;whiteSpace=wrap;html=1;fixedSize=1;" vertex="1" parent="1">
          <mxGeometry x="330" y="1240" width="120" height="60" as="geometry" />
        </mxCell>
        <mxCell id="LV8V1AMUxR7woBJsiXBK-56" value="num1" style="shape=parallelogram;perimeter=parallelogramPerimeter;whiteSpace=wrap;html=1;fixedSize=1;" vertex="1" parent="1">
          <mxGeometry x="710" y="1000" width="120" height="60" as="geometry" />
        </mxCell>
        <mxCell id="LV8V1AMUxR7woBJsiXBK-57" value="num1" style="shape=parallelogram;perimeter=parallelogramPerimeter;whiteSpace=wrap;html=1;fixedSize=1;" vertex="1" parent="1">
          <mxGeometry x="530" y="1000" width="120" height="60" as="geometry" />
        </mxCell>
        <mxCell id="LV8V1AMUxR7woBJsiXBK-58" value="num1" style="shape=parallelogram;perimeter=parallelogramPerimeter;whiteSpace=wrap;html=1;fixedSize=1;" vertex="1" parent="1">
          <mxGeometry x="880" y="1000" width="120" height="60" as="geometry" />
        </mxCell>
        <mxCell id="LV8V1AMUxR7woBJsiXBK-59" value="num2" style="shape=parallelogram;perimeter=parallelogramPerimeter;whiteSpace=wrap;html=1;fixedSize=1;" vertex="1" parent="1">
          <mxGeometry x="530" y="1240" width="120" height="60" as="geometry" />
        </mxCell>
        <mxCell id="LV8V1AMUxR7woBJsiXBK-60" value="num2" style="shape=parallelogram;perimeter=parallelogramPerimeter;whiteSpace=wrap;html=1;fixedSize=1;" vertex="1" parent="1">
          <mxGeometry x="710" y="1240" width="120" height="60" as="geometry" />
        </mxCell>
        <mxCell id="LV8V1AMUxR7woBJsiXBK-61" value="num2" style="shape=parallelogram;perimeter=parallelogramPerimeter;whiteSpace=wrap;html=1;fixedSize=1;" vertex="1" parent="1">
          <mxGeometry x="880" y="1240" width="120" height="60" as="geometry" />
        </mxCell>
      </root>
    </mxGraphModel>
  </diagram>
</mxfile>
